<?xml version="1.0" encoding="iso-8859-1"?>
<!-- Uploaded to: SVG Repo, www.svgrepo.com, Generator: SVG Repo Mixer Tools -->
<svg height="800px" width="800px" version="1.1" id="Layer_1" xmlns="http://www.w3.org/2000/svg" xmlns:xlink="http://www.w3.org/1999/xlink" 
	 viewBox="0 0 512 512" xml:space="preserve">
<path style="fill:#8AE9FF;" d="M105.726,193.612c6.251,6.252,14.574,9.694,23.435,9.694c8.86,0,17.183-3.442,23.434-9.694
	l70.263-70.263v345.311c0,18.274,14.866,33.14,33.141,33.14s33.141-14.866,33.141-33.14V123.349l70.263,70.263
	c12.921,12.921,33.946,12.921,46.868,0.001c6.259-6.259,9.707-14.582,9.707-23.435c0-8.852-3.447-17.174-9.707-23.433
	L279.434,19.907c-6.259-6.26-14.582-9.708-23.435-9.708c-8.853,0-17.175,3.447-23.435,9.708L105.726,146.744
	c-6.259,6.259-9.707,14.582-9.707,23.434C96.02,179.032,99.467,187.353,105.726,193.612z"/>
<g>
	<path style="fill:#248A9C;" d="M255.999,512c-23.898,0-43.34-19.443-43.34-43.339V147.972l-52.852,52.852
		c-8.177,8.178-19.06,12.682-30.646,12.682s-22.469-4.504-30.646-12.682l0,0c-0.001-0.001-0.001-0.001-0.001-0.001
		c-8.185-8.185-12.693-19.068-12.693-30.646s4.508-22.46,12.694-30.647L225.353,12.695C233.537,4.509,244.42,0,255.999,0
		c11.58,0,22.464,4.509,30.649,12.697l126.836,126.835c8.186,8.186,12.694,19.069,12.694,30.646c0,11.576-4.508,22.46-12.694,30.647
		c-16.899,16.895-44.395,16.897-61.293,0l-52.851-52.851v320.687C299.34,492.558,279.897,512,255.999,512z M222.86,113.15
		c1.315,0,2.639,0.254,3.901,0.777c3.811,1.578,6.296,5.296,6.296,9.422v345.31c0,12.649,10.291,22.941,22.942,22.941
		s22.942-10.292,22.942-22.941v-345.31c0-4.126,2.486-7.844,6.296-9.422c3.81-1.58,8.198-0.706,11.115,2.21l70.263,70.263
		c8.944,8.944,23.498,8.946,32.446,0c4.333-4.333,6.719-10.094,6.719-16.222c0-6.128-2.387-11.887-6.72-16.221L272.221,27.12
		c-4.333-4.335-10.092-6.721-16.222-6.721c-6.129,0-11.89,2.387-16.222,6.72L112.939,153.956c-4.334,4.333-6.72,10.094-6.72,16.222
		c0,6.129,2.387,11.889,6.719,16.222c0,0,0,0,0.001,0.001c4.323,4.324,10.085,6.706,16.222,6.706c6.137,0,11.897-2.382,16.222-6.707
		l70.264-70.263C217.597,114.186,220.206,113.15,222.86,113.15z"/>
	<path style="fill:#248A9C;" d="M177.952,127.464c-2.61,0-5.221-0.996-7.212-2.987c-3.983-3.983-3.983-10.441,0-14.425l2.023-2.022
		c3.983-3.982,10.441-3.982,14.425,0c3.983,3.983,3.983,10.441,0,14.425l-2.023,2.022
		C183.173,126.467,180.562,127.464,177.952,127.464z"/>
	<path style="fill:#248A9C;" d="M199.722,105.693c-2.61,0-5.22-0.996-7.212-2.987c-3.983-3.983-3.984-10.441,0-14.425l53.275-53.276
		c3.983-3.982,10.44-3.982,14.425,0c3.983,3.983,3.983,10.441,0,14.425l-53.276,53.276
		C204.943,104.697,202.332,105.693,199.722,105.693z"/>
</g>
</svg>